%
M48
M72
T01C0.02362
%
T01
X18900Y41400
X18900Y61400
X43900Y61400
X43900Y41400
X68900Y41400
X68900Y61400
X93900Y61400
X93900Y41400
X118900Y41400
X118900Y61400
X143900Y61400
X143900Y41400
X168900Y41400
X168900Y61400
X168900Y108900
X168900Y128900
X143900Y128900
X143900Y108900
X118900Y108900
X118900Y128900
X93900Y128900
X93900Y108900
X68900Y108900
X68900Y128900
X43900Y128900
X43900Y108900
X18900Y108900
X18900Y128900
X6400Y153900
X26400Y153900
X26400Y178900
X6400Y178900
X93900Y153900
X73900Y153900
X73900Y178900
X93900Y178900
M30
